Tracklist:

01. Sparks Fly
02. Mine
03. Story of Us
04. Our Song
05. Mean
06. Back To December
07. Better Than Revenge
08. Speak Now
09. Fearless
10. Last Kiss
11. You Belong With Me
12. Dear John
13. Enchanted
14. Haunted
15. Long Live
16. Fifteen
17. Love Story

General
Unique ID : 331582470989232218531478838190207971043 (0xF9747603850FA2886E6FAF1380E8AEE3)
Complete name : Taylor.Swift.Speak.Now.Live.2011.DD5.1-TrollHD.mkv
Format : Matroska
Format version : Version 2
File size : 4.52 GiB
Duration : 2h 9mn
Overall bit rate : 5 002 Kbps
Writing application : XviD4PSP 6.0 / 53.6.0
Writing library : XviD4PSP 6.0 / 53.6.0

Video
ID : 1
Format : AVC
Format/Info : Advanced Video Codec
Format profile : High@L4.1
Format settings, CABAC : Yes
Format settings, ReFrames : 3 frames
Codec ID : V_MPEG4/ISO/AVC
Duration : 2h 9mn
Bit rate : 4 455 Kbps
Width : 1 280 pixels
Height : 720 pixels
Display aspect ratio : 16:9
Frame rate mode : Variable
Frame rate : 23.976 fps
Color space : YUV
Chroma subsampling : 4:2:0
Bit depth : 8 bits
Scan type : Progressive
Bits/(Pixel*Frame) : 0.202
Stream size : 4.03 GiB (89%)
Writing library : x264 core 116 r2044M 392e762


Audio
ID : 2
Format : AC-3
Format/Info : Audio Coding 3
Mode extension : CM (complete main)
Codec ID : A_AC3
Duration : 2h 9mn
Bit rate mode : Constant
Bit rate : 448 Kbps
Channel(s) : 6 channels
Channel positions : Front: L C R, Side: L R, LFE
Sampling rate : 48.0 KHz
Bit depth : 16 bits
Compression mode : Lossy
Stream size : 415 MiB (9%)
Language : English